<svg height="382.624pt" viewBox="0 0 382.624 382.624" width="382.624pt" xmlns="http://www.w3.org/2000/svg"><path d="m251.121094 168.542969c-.320313-.480469-.640625-1.039063-.960938-1.519531-2.960937-4.320313-6.160156-8.480469-9.519531-12.398438-.242187-.160156-.320313-.320312-.480469-.480469-1.839844-2.082031-3.679687-4.082031-5.601562-6.082031-2-1.917969-4-3.757812-6.078125-5.597656-.160157-.160156-.320313-.242188-.480469-.480469-3.921875-3.359375-8.078125-6.558594-12.398438-9.519531-.480468-.320313-1.042968-.640625-1.523437-.960938-2.238281-1.441406-4.476563-2.878906-6.796875-4.160156-18.640625-10.640625-40.242188-16.71875-63.28125-16.71875-70.71875 0-128 57.277344-128 128 0 70.71875 57.28125 128 128 128s128-57.28125 128-128c0-23.039062-6.078125-44.640625-16.71875-63.28125-1.28125-2.320312-2.722656-4.558594-4.160156-6.800781zm0 0" fill="#cce4ff"/><g fill="#007aff"><path d="m96 238.625v-16h-32v16c0 44.109375 35.886719 80 80 80h16v-32h-16c-26.472656 0-48-21.527344-48-48zm0 0"/><path d="m360 0-80 80-24-24-51.929688 51.929688c-18.308593-8.457032-38.613281-13.304688-60.070312-13.304688-79.398438 0-144 64.597656-144 144 0 79.398438 64.601562 144 144 144s144-64.601562 144-144c0-21.457031-4.847656-41.761719-13.304688-60.074219l51.929688-51.925781-24-24 33.375-33.378906 24 24 22.625-22.621094-24-24 24-24zm-216 350.625c-61.761719 0-112-50.242188-112-112 0-61.761719 50.238281-112 112-112 21.296875 0 41.144531 6.078125 58.113281 16.4375 2.4375 1.480469 4.824219 3.058594 7.132813 4.714844 1.539062 1.109375 3.074218 2.222656 4.554687 3.40625 2.230469 1.785156 4.351563 3.6875 6.4375 5.632812 1.929688 1.800782 3.785157 3.65625 5.578125 5.574219 1.9375 2.082031 3.839844 4.203125 5.617188 6.425781 1.191406 1.488282 2.308594 3.03125 3.421875 4.574219 1.648437 2.296875 3.199219 4.65625 4.671875 7.082031 10.382812 16.976563 16.472656 36.839844 16.472656 58.152344 0 61.757812-50.238281 112-112 112zm137.375-224-23.640625 23.640625c-.566406-.730469-1.246094-1.355469-1.824219-2.066406-1.871094-2.3125-3.886718-4.496094-5.894531-6.6875-2.839844-3.097657-5.800781-6.054688-8.894531-8.894531-2.191406-2.007813-4.378906-4.023438-6.6875-5.898438-.714844-.574219-1.34375-1.253906-2.066406-1.824219l23.632812-23.648437 1.375 1.378906 22.625 22.621094zm0 0"/></g></svg>