<svg height="384pt" viewBox="0 0 384 384" width="384pt" xmlns="http://www.w3.org/2000/svg"><path d="m192 368c83.441406 0 153.265625-58.078125 171.375-136-18.109375-77.921875-87.933594-136-171.375-136s-153.265625 58.078125-171.375 136c18.109375 77.921875 87.933594 136 171.375 136zm0 0" fill="#cce4ff"/><g fill="#007aff"><path d="m192.078125 223.921875c-27.46875 0-53.941406 9.964844-74.550781 28.054687l-12.023438 10.550782 21.113282 24.046875 12.023437-10.550781c14.765625-12.960938 33.75-20.101563 53.449219-20.101563 19.710937 0 38.652344 7.109375 53.367187 20.023437l12.023438 10.550782 21.113281-24.039063-12.027344-10.5625c-20.558594-18.039062-47.007812-27.972656-74.488281-27.972656zm0 0"/><path d="m192 0c-105.871094 0-192 86.128906-192 192s86.128906 192 192 192c105.863281 0 192-86.128906 192-192s-86.136719-192-192-192zm0 352c-88.222656 0-160-71.777344-160-160s71.777344-160 160-160 160 71.777344 160 160-71.777344 160-160 160zm0 0"/><path d="m112 144h32v32h-32zm0 0"/><path d="m240 144h32v32h-32zm0 0"/></g></svg>