<svg height="384pt" viewBox="0 0 384 384" width="384pt" xmlns="http://www.w3.org/2000/svg"><path d="m192 368c83.441406 0 153.265625-58.078125 171.375-136-18.109375-77.921875-87.933594-136-171.375-136s-153.265625 58.078125-171.375 136c18.109375 77.921875 87.933594 136 171.375 136zm0 0" fill="#cce4ff"/><g fill="#007aff"><path d="m245.449219 235.894531c-14.777344 12.960938-33.753907 20.105469-53.449219 20.105469-19.703125 0-38.65625-7.113281-53.367188-20.023438l-12.023437-10.550781-21.113281 24.046875 12.023437 10.550782c20.550781 18.039062 47 27.976562 74.480469 27.976562 27.472656 0 53.945312-9.96875 74.550781-28.054688l12.023438-10.554687-21.109375-24.046875zm0 0"/><path d="m192 0c-105.871094 0-192 86.128906-192 192s86.128906 192 192 192 192-86.128906 192-192-86.128906-192-192-192zm0 352c-88.222656 0-160-71.777344-160-160s71.777344-160 160-160 160 71.777344 160 160-71.777344 160-160 160zm0 0"/><path d="m112 144h32v32h-32zm0 0"/><path d="m240 144h32v32h-32zm0 0"/></g></svg>